<?xml version="1.0" encoding="utf-8"?>
<!-- Generator: Adobe Illustrator 16.0.0, SVG Export Plug-In . SVG Version: 6.00 Build 0)  -->
<!DOCTYPE svg PUBLIC "-//W3C//DTD SVG 1.1//EN" "http://www.w3.org/Graphics/SVG/1.1/DTD/svg11.dtd">
<svg version="1.1" id="Layer_1" xmlns:inkscape="http://www.inkscape.org/namespaces/inkscape"
	 xmlns="http://www.w3.org/2000/svg" xmlns:xlink="http://www.w3.org/1999/xlink" x="0px" y="0px" width="1920px" height="1080px"
	 viewBox="0 0 1920 1080" enable-background="new 0 0 1920 1080" xml:space="preserve">
<g id="Mon_Sep__1_12:39:45_2014" inkscape:groupmode="layer">
	<g id="Line005">
		<g id="caras_bordes.Line005">
			<polygon opacity="0.9" fill="#3DFF06" stroke="#0D3006" stroke-linecap="round" enable-background="new    " points="
				315.497,447.822 314.796,448.412 331.548,439.938 			"/>
			<polygon opacity="0.9" fill="#3DFF06" stroke="#0E3206" stroke-linecap="round" enable-background="new    " points="
				332.229,439.325 331.548,439.938 347.223,431.582 			"/>
			<polygon opacity="0.9" fill="#3DFF06" stroke="#124208" stroke-linecap="round" enable-background="new    " points="
				347.88,430.944 347.223,431.582 360.663,425.274 			"/>
			<polygon opacity="0.9" fill="#3DFF06" stroke="#0F3506" stroke-linecap="round" enable-background="new    " points="
				315.497,447.822 331.548,439.938 332.229,439.325 			"/>
			<polygon opacity="0.9" fill="#3DFF06" stroke="#0F3807" stroke-linecap="round" enable-background="new    " points="
				332.229,439.325 347.223,431.582 347.88,430.944 			"/>
			<polyline opacity="0.9" fill="#3DFF06" stroke="#45FF1E" stroke-linecap="round" enable-background="new    " points="
				380.589,254.958 372.193,247.396 356.923,237.55 336.526,227.853 312.732,220.737 			"/>
			<path opacity="0.9" fill="#3DFF06" stroke="#45FF1E" stroke-linecap="round" enable-background="new    " d="M428.667,244.513"/>
			<polyline opacity="0.9" fill="#3DFF06" stroke="#45FF1E" stroke-linecap="round" enable-background="new    " points="
				560.76,349.265 559.116,331.778 554.815,316.582 548.775,304.922 543.697,297.167 538.534,289.451 532.124,281.733 
				523.302,273.969 510.907,266.121 493.776,258.146 470.743,250.003 			"/>
			<polyline opacity="0.9" fill="#3DFF06" stroke="#45FF1E" stroke-linecap="round" enable-background="new    " points="
				503.74,420.108 512.902,420.519 522.359,417.265 540.546,403.043 552.396,386.14 558.826,367.8 560.76,349.265 559.116,331.778 
				554.815,316.582 548.775,304.922 543.697,297.167 538.534,289.451 532.124,281.733 523.302,273.969 510.907,266.121 
				493.776,258.146 470.743,250.003 447.849,245.01 428.667,244.513 412.975,246.953 400.544,250.775 391.154,254.42 
				384.576,256.334 380.589,254.958 372.193,247.396 356.923,237.55 336.526,227.853 312.732,220.737 287.279,218.633 
				261.904,223.974 238.343,239.192 226.935,251.11 218.404,262.477 218.01,411.099 223.822,425.144 233.415,435.505 
				245.265,443.259 257.845,449.483 269.63,455.253 282.683,458 298.122,455.077 314.796,448.412 331.548,439.938 347.223,431.582 
				360.663,425.274 366.892,422.47 368.329,421.504 371.007,421.161 374.519,421.3 378.458,421.781 382.413,422.463 
				385.982,423.204 388.751,423.867 391.071,424.13 393.789,423.986 396.715,423.61 399.654,423.182 402.414,422.879 
				404.802,422.882 406.624,423.367 409.523,425.218 412.743,427.625 416.384,430.287 420.539,432.907 425.308,435.188 
				430.785,436.831 437.071,437.539 446.097,435.806 453.487,431.003 459.445,424.345 464.174,417.048 467.88,410.327 
				470.765,405.399 473.035,403.479 476.146,404.902 495.179,417.188 503.74,420.108 			"/>
		</g>
	</g>
</g>
</svg>
