<?xml version="1.0" encoding="utf-8"?>
<!-- Generator: Adobe Illustrator 16.0.0, SVG Export Plug-In . SVG Version: 6.00 Build 0)  -->
<!DOCTYPE svg PUBLIC "-//W3C//DTD SVG 1.1//EN" "http://www.w3.org/Graphics/SVG/1.1/DTD/svg11.dtd">
<svg version="1.1" id="Layer_1" xmlns:inkscape="http://www.inkscape.org/namespaces/inkscape"
	 xmlns="http://www.w3.org/2000/svg" xmlns:xlink="http://www.w3.org/1999/xlink" x="0px" y="0px" width="1920px" height="1080px"
	 viewBox="0 0 1920 1080" enable-background="new 0 0 1920 1080" xml:space="preserve">
<g id="Mon_Sep__1_12:39:45_2014" inkscape:groupmode="layer">
	<g id="Line005">
		<g id="caras_bordes.Line005">
			<polygon opacity="0.9" fill="#3DFF06" stroke="#0D3006" stroke-linecap="round" enable-background="new    " points="
				277.473,452.056 277.118,452.901 288.197,437.745 			"/>
			<polygon opacity="0.9" fill="#3DFF06" stroke="#0E3206" stroke-linecap="round" enable-background="new    " points="
				288.524,436.889 288.197,437.745 298.369,423.183 			"/>
			<polygon opacity="0.9" fill="#3DFF06" stroke="#124208" stroke-linecap="round" enable-background="new    " points="
				298.665,422.317 298.369,423.183 307.481,411.461 			"/>
			<polygon opacity="0.9" fill="#3DFF06" stroke="#0F3506" stroke-linecap="round" enable-background="new    " points="
				277.473,452.056 288.197,437.745 288.524,436.889 			"/>
			<polygon opacity="0.9" fill="#3DFF06" stroke="#0F3807" stroke-linecap="round" enable-background="new    " points="
				288.524,436.889 298.369,423.183 298.665,422.317 			"/>
			<polyline opacity="0.9" fill="#3DFF06" stroke="#45FF1E" stroke-linecap="round" enable-background="new    " points="
				429.304,281.255 427.343,270.125 421.373,252.967 411.269,232.767 396.9,212.51 			"/>
			<path opacity="0.9" fill="#3DFF06" stroke="#45FF1E" stroke-linecap="round" enable-background="new    " d="M473.621,302.624"/>
			<polyline opacity="0.9" fill="#3DFF06" stroke="#45FF1E" stroke-linecap="round" enable-background="new    " points="
				513.219,466.494 522.69,451.702 528.656,437.079 531.076,424.172 531.848,414.935 532.531,405.676 532.231,395.647 
				530.059,384.099 525.124,370.283 516.534,353.451 503.397,332.854 			"/>
			<polyline opacity="0.9" fill="#3DFF06" stroke="#45FF1E" stroke-linecap="round" enable-background="new    " points="
				424.294,486.378 424.672,487.213 431.638,493.177 441.094,496.436 464.181,496.426 483.926,490.402 500.285,479.909 
				513.219,466.494 522.69,451.702 528.656,437.079 531.076,424.172 531.848,414.935 532.531,405.676 532.231,395.647 
				530.059,384.099 525.124,370.283 516.534,353.451 503.397,332.854 488.43,314.825 473.621,302.624 459.753,294.885 
				447.604,290.244 437.96,287.334 431.599,284.793 429.304,281.255 427.343,270.125 421.373,252.967 411.269,232.767 396.9,212.51 
				378.138,195.182 354.854,183.769 326.919,181.255 310.593,183.624 296.871,187.328 285.466,192.418 276.086,198.942 
				268.443,206.949 262.248,216.487 257.211,227.604 254.325,238.533 253.513,249.494 254.045,260.467 255.187,271.437 
				256.212,282.385 256.387,293.295 254.982,304.15 249.473,317.172 240.258,327.722 228.47,336.639 215.246,344.759 
				201.719,352.923 189.028,361.967 178.305,372.729 173.484,378.037 168.864,382.336 164.749,386.587 161.442,391.745 
				159.247,398.767 158.466,408.611 159.403,422.234 164.953,447.066 173.94,463.594 185.495,473.47 198.747,478.346 
				212.825,479.875 226.859,479.71 239.98,479.501 252.857,476.023 265.287,466.409 277.118,452.901 288.197,437.745 
				298.369,423.183 307.481,411.461 315.38,404.823 317.107,404.946 319.428,406.325 322.111,408.597 324.919,411.4 
				327.616,414.374 329.97,417.154 331.746,419.381 333.411,421.017 335.642,422.577 338.179,424.082 340.759,425.554 
				343.12,427.015 345,428.487 346.137,429.991 347.282,433.235 348.339,437.114 349.568,441.453 351.229,446.076 353.582,450.809 
				356.887,455.476 361.404,459.904 369.584,464.095 378.364,464.86 387.158,463.281 395.378,460.443 402.435,457.428 
				407.743,455.321 410.715,455.206 412.289,458.243 419.723,479.641 424.672,487.213 			"/>
		</g>
	</g>
</g>
</svg>
